<svg xmlns="http://www.w3.org/2000/svg" width="550" height="217" viewBox="0 0 550 217">
  <defs>
    <style>
      .cls-1 {
        fill: #e8e8e8;
        fill-rule: evenodd;
      }
    </style>
  </defs>
  <path id="CS19_Dev_Community" data-name="CS19 Dev Community" class="cls-1" d="M236.872,68.425c-6.341,0-9.3,4.148-9.3,10.43v21.454c0,6.282,2.963,10.43,9.3,10.43,6.4,0,9.364-4.148,9.364-10.43V95.153H241.85v5.393c0,3.733-1.481,5.985-4.859,5.985-3.319,0-4.86-2.252-4.86-5.985V78.618c0-3.734,1.541-5.986,4.86-5.986,3.378,0,4.859,2.252,4.859,5.986v3.971h4.386V78.855C246.236,72.573,243.272,68.425,236.872,68.425Zm24.654,0c-6.222,0-9.185,3.971-9.185,10.371,0,11.675,13.867,12.564,13.867,21.809,0,3.734-1.541,5.926-4.859,5.926s-4.86-2.192-4.86-5.926V98h-4.326v2.371c0,6.282,2.963,10.371,9.3,10.371s9.364-4.089,9.364-10.371C270.831,88.693,256.9,87.8,256.9,78.5c0-3.674,1.422-5.867,4.741-5.867s4.741,2.193,4.741,5.926v1.363h4.386V78.8C270.772,72.514,267.808,68.425,261.526,68.425Zm24.181,41.9h4.563V68.84h-3.2c-1.067,2.9-2.608,5.334-7.112,5.512v3.793a12.409,12.409,0,0,0,5.749-1.778v33.958Zm23-41.9c-6.4,0-9.482,4.089-9.482,10.43V85.2c0,5.986,2.37,9.779,7.7,9.779a6.633,6.633,0,0,0,6.7-4.386v9.3c0,4.385-1.541,6.637-5.1,6.637-3.319,0-4.919-2.192-4.919-5.926V99.538h-4.326v0.771c0,6.341,3.022,10.43,9.363,10.43,6.638,0,9.6-4.148,9.6-10.727V78.855C318.243,72.514,315.1,68.425,308.7,68.425Zm0,4.208c3.378,0,4.919,2.193,4.919,5.986v6.223c0,3.734-1.541,5.986-4.919,5.986-3.319,0-4.919-2.252-4.919-5.986V78.618C303.783,74.825,305.383,72.633,308.7,72.633ZM18.834,131.34H3.188v41.484H18.834C45.858,172.706,45.858,131.458,18.834,131.34ZM13.8,141h5.037c13.216,0,13.216,22.164,0,22.164H13.8V141Zm61.636-9.66h-25.9v41.484H75.965V163.4H60.083v-7.289h14.1v-9.423h-14.1v-5.867H75.432V131.34Zm17.78,0H83.019v1.6L100.8,173.3h4.5l17.6-40.358v-1.6H112.71l-9.482,23.468h-0.3Zm54.406,20.742c0.059,14.105,10.727,21.216,21.276,21.157,8.83,0,18.135-4.622,19.675-16.357h-10.43c-1.126,4.445-4.741,6.7-9.245,6.7-6.282-.059-10.312-5.393-10.312-11.5,0-6.875,4.089-11.556,10.312-11.556,4.445,0,7.586,1.9,9.067,6.1h10.431c-1.6-11.083-10.9-15.764-19.5-15.764C158.345,130.866,147.677,137.977,147.618,152.082Zm91.446,0.059c0-28.683-42.552-28.683-42.552,0C196.512,180.884,239.064,180.884,239.064,152.141Zm-31.647,0c0-14.934,20.8-14.934,20.8,0C228.218,167.194,207.417,167.194,207.417,152.141Zm62.11-2.9-16.239-18.016h-3.911v41.6h10.845v-18.49l8.771,9.245h1.186l8.83-9.245v18.49h10.845v-41.6h-3.793Zm53.339,0-16.239-18.016h-3.911v41.6h10.845v-18.49l8.771,9.245h1.185l8.831-9.245v18.49h10.845v-41.6H339.4Zm49.309,14.638c-3.082,0-6.342-1.659-6.342-5.037v-27.5H355.7v27.676c0,9.126,8,14.4,16.476,14.4,8.534,0,16.416-5.275,16.416-14.4V131.34H378.457v27.5C378.457,162.216,375.256,163.875,372.175,163.875Zm60.983,9.009h3.793V131.34H426.106v20.327l-20.979-20.5h-3.853v41.662h10.964V152.438ZM462.2,163.52V140.585h4.86V131.34H446.85v9.245h4.859V163.52h-5.274v9.3h21.038v-9.3H462.2Zm20.684-22.7v32h10.489v-32h10.135V131.34H472.689v9.482h10.194ZM533.5,155.4l13.986-22.461v-1.6h-11.5l-7.526,13.808h-0.415l-7.527-13.808H509.078v1.6L523.005,155.4v17.423H533.5V155.4Z"/>
</svg>
